<svg xmlns="http://www.w3.org/2000/svg" viewBox="0 0 1200 820" role="img" aria-labelledby="title desc">
  <title id="title">Visual 3D interior</title>
  <desc id="desc">Visual perspektif 3D ruang keluarga dengan sofa, meja, lampu gantung, kabinet, dan tanaman.</desc>
  <defs>
    <linearGradient id="wall" x1="0" x2="1"><stop stop-color="#c9bfb4"/><stop offset="1" stop-color="#ece2d7"/></linearGradient>
    <linearGradient id="floor" x1="0" y1="0" x2="0" y2="1"><stop stop-color="#b88a58"/><stop offset="1" stop-color="#8d6036"/></linearGradient>
  </defs>
  <rect width="1200" height="820" fill="url(#wall)"/>
  <path d="M0 610h1200v210H0z" fill="url(#floor)"/>
  <path d="M0 610h1200M120 820l170-210M360 820l92-210M600 820V610M840 820l-92-210M1080 820L910 610" stroke="#754d2e" stroke-width="3" opacity=".35"/>
  <rect x="150" y="220" width="250" height="310" fill="#d6c1aa"/>
  <rect x="190" y="260" width="170" height="88" fill="#f5ede3"/>
  <rect x="190" y="378" width="170" height="88" fill="#b98a56" opacity=".8"/>
  <rect x="470" y="405" width="470" height="170" rx="28" fill="#eee5da"/>
  <rect x="430" y="465" width="70" height="110" rx="20" fill="#e5d8c9"/>
  <rect x="530" y="438" width="105" height="88" rx="18" fill="#dfd1c0"/>
  <rect x="650" y="438" width="105" height="88" rx="18" fill="#b9824d"/>
  <rect x="770" y="438" width="105" height="88" rx="18" fill="#dfd1c0"/>
  <ellipse cx="655" cy="650" rx="142" ry="38" fill="#b9824d"/>
  <rect x="646" y="650" width="18" height="80" fill="#7c4f2c"/>
  <path d="M945 535c-38-95-8-165 72-215M962 550c-92-58-120-130-84-215M982 552c52-82 123-118 214-106" fill="none" stroke="#53624d" stroke-width="14" stroke-linecap="round"/>
  <path d="M930 575h110l-18 115h-74z" fill="#9d693a"/>
  <path d="M740 0v170" stroke="#3c342d" stroke-width="5"/><ellipse cx="740" cy="190" rx="58" ry="36" fill="#fff2dd"/>
  <rect x="520" y="150" width="210" height="145" fill="#efe7de" stroke="#8d8174" stroke-width="10"/>
</svg>
